<?xml version="1.0" encoding="UTF-8"?>
<svg width="240px" height="261px" viewBox="0 0 240 261" version="1.1" xmlns="http://www.w3.org/2000/svg" xmlns:xlink="http://www.w3.org/1999/xlink">
    <title>Group 6</title>
    <defs>
        <filter color-interpolation-filters="auto" id="filter-1">
            <feColorMatrix in="SourceGraphic" type="matrix" values="0 0 0 0 0.306459 0 0 0 0 0.306459 0 0 0 0 0.306459 0 0 0 1.000000 0"></feColorMatrix>
        </filter>
    </defs>
    <g id="Page-1" stroke="none" stroke-width="1" fill="none" fill-rule="evenodd">
        <g filter="url(#filter-1)" id="LogoGlyphWhite">
            <g id="Group-6" fill="#FFFFFF" fill-rule="nonzero">
                <path d="M220.802193,72.8838228 L220.802193,101.87533 C210.279832,104.436439 197.107527,123.550006 197.212612,139.463883 C197.010988,161.030365 210.700855,162.079527 220.802193,159.525882 L220.802193,187.549828 L131.290253,232.882564 C122.215451,237.478464 111.52823,237.632373 102.324845,233.299701 L18.1973887,193.695558 L18.1973887,165.20135 C28.1259886,167.312824 40.6406861,165.454503 40.4478453,144.827526 C40.5485113,129.582829 28.4649404,111.401878 18.1973887,107.648394 L18.1973887,78.8169333 L96.1350467,115.612661 C109.243562,121.801502 124.474464,121.595205 137.41055,115.0536 L220.802193,72.8838228 Z" id="Combined-Shape-Copy"></path>
                <path d="M118.127072,22.7693863 L212.439037,66.2384796 L188.408287,78.4630654 C184.494898,77.7638841 180.099273,77.3661102 175.31827,77.3661102 C173.358381,77.3661102 171.196638,77.2858296 168.866267,77.2773376 L168.124793,77.2772196 C160.405779,77.3043244 150.928409,78.2662962 140.847144,85.4470417 C132.819387,91.1651011 134.908928,98.1039139 140.229783,102.973944 L137.533832,104.345276 C123.695914,111.38509 107.372882,111.597238 93.356679,104.919439 L93.356679,104.919439 L23.8151075,71.7874564 L46.6762496,59.9061025 C51.1963641,60.9215733 56.471742,61.5177104 62.3246813,61.5177104 C64.2845699,61.5177104 66.4463125,61.5979909 68.7766842,61.606483 L69.5181577,61.606601 C77.237172,61.5794962 86.7145416,60.6175244 96.7958073,53.4367789 C105.662808,47.1209376 102.186557,39.3157591 95.6463178,34.4540858 L118.127072,22.7693863 Z" id="Combined-Shape-Copy-2"></path>
                <path d="M240,59.3389207 L116.430459,0 L0,59.3973406 L0,203.956734 L116.509396,260.645834 L240,198.052644 L240,59.3389207 Z M116.591949,10.2071244 L230.789801,65.0456694 L230.789801,192.511449 L116.514749,250.4337 L9.21005755,198.223397 L9.21005755,64.9882422 L116.591949,10.2071244 Z" id="Path-3-Copy"></path>
            </g>
        </g>
    </g>
</svg>